<svg width="12" height="12" viewBox="0 0 12 12" fill="none" xmlns="http://www.w3.org/2000/svg">
<path d="M4.71177 8.92857C4.71177 9.04911 4.61802 9.14286 4.49749 9.14286H4.06892C3.94838 9.14286 3.85463 9.04911 3.85463 8.92857V4.21429C3.85463 4.09375 3.94838 4 4.06892 4H4.49749C4.61802 4 4.71177 4.09375 4.71177 4.21429V8.92857ZM6.42606 8.92857C6.42606 9.04911 6.33231 9.14286 6.21177 9.14286H5.7832C5.66267 9.14286 5.56892 9.04911 5.56892 8.92857V4.21429C5.56892 4.09375 5.66267 4 5.7832 4H6.21177C6.33231 4 6.42606 4.09375 6.42606 4.21429V8.92857ZM8.14035 8.92857C8.14035 9.04911 8.0466 9.14286 7.92606 9.14286H7.49749C7.37695 9.14286 7.2832 9.04911 7.2832 8.92857V4.21429C7.2832 4.09375 7.37695 4 7.49749 4H7.92606C8.0466 4 8.14035 4.09375 8.14035 4.21429V8.92857ZM4.49749 2.28571L4.82561 1.50223C4.8457 1.47545 4.89927 1.43527 4.93945 1.42857H7.06222C7.0957 1.43527 7.15597 1.47545 7.17606 1.50223L7.49749 2.28571H4.49749ZM10.7118 2.5C10.7118 2.37946 10.618 2.28571 10.4975 2.28571H8.42829L7.95954 1.16741C7.82561 0.839286 7.42383 0.571428 7.06892 0.571428H4.92606C4.57115 0.571428 4.16936 0.839286 4.03544 1.16741L3.56669 2.28571H1.49749C1.37695 2.28571 1.2832 2.37946 1.2832 2.5V2.92857C1.2832 3.04911 1.37695 3.14286 1.49749 3.14286H2.14035V9.51786C2.14035 10.2545 2.62249 10.8571 3.21177 10.8571H8.7832C9.37249 10.8571 9.85463 10.2277 9.85463 9.49107V3.14286H10.4975C10.618 3.14286 10.7118 3.04911 10.7118 2.92857V2.5Z" fill="white"/>
</svg>
