<svg width="15" height="15" viewBox="0 0 15 15" fill="none" xmlns="http://www.w3.org/2000/svg">
<path d="M3.28174 10.5471H0.469238C0.339863 10.5471 0.234863 10.6521 0.234863 10.7814V13.5939C0.234863 13.7233 0.339863 13.8283 0.469238 13.8283H3.28174C3.41111 13.8283 3.51611 13.7233 3.51611 13.5939V10.7814C3.51611 10.6521 3.41111 10.5471 3.28174 10.5471Z" fill="#11CDEF"/>
<path d="M5.62573 1.17203H2.81323C2.68386 1.17203 2.57886 1.27703 2.57886 1.4064V4.2189C2.57886 4.34828 2.68386 4.45328 2.81323 4.45328H5.62573C5.75511 4.45328 5.86011 4.34828 5.86011 4.2189V1.4064C5.86011 1.27703 5.75511 1.17203 5.62573 1.17203Z" fill="#11CDEF"/>
<path d="M12.4224 4.2189V1.4064C12.4224 1.27703 12.3174 1.17203 12.188 1.17203H9.37549C9.24611 1.17203 9.14111 1.27703 9.14111 1.4064V4.2189C9.14111 4.34828 9.24611 4.45328 9.37549 4.45328H12.188C12.3174 4.45328 12.4224 4.34828 12.4224 4.2189Z" fill="#11CDEF"/>
<path d="M14.532 10.5471H11.7195C11.5901 10.5471 11.4851 10.6521 11.4851 10.7814V13.5939C11.4851 13.7233 11.5901 13.8283 11.7195 13.8283H14.532C14.6614 13.8283 14.7664 13.7233 14.7664 13.5939V10.7814C14.7664 10.6521 14.6614 10.5471 14.532 10.5471Z" fill="#11CDEF"/>
<path d="M8.67261 2.57822H6.32886V3.04697H8.67261V2.57822Z" fill="#11CDEF"/>
<path d="M3.3418 4.92212L1.79492 10.0784H2.2843L3.83117 4.92212H3.3418Z" fill="#11CDEF"/>
<path d="M11.6591 4.92212L13.2059 10.0784H12.7166L11.1697 4.92212H11.6591Z" fill="#11CDEF"/>
<path d="M11.0161 11.9532H3.98486V12.422H11.0161V11.9532Z" fill="#11CDEF"/>
</svg>
