<svg width="15" height="15" viewBox="0 0 15 15" fill="none" xmlns="http://www.w3.org/2000/svg">
<path d="M11.7676 13.599C10.5155 13.3446 9.24532 13.189 7.96883 13.1336V12.1876H7.03133V13.1336C5.75484 13.189 4.48468 13.3446 3.23259 13.599C3.20247 13.6054 3.17391 13.6177 3.14853 13.6351C3.12316 13.6526 3.10147 13.6748 3.0847 13.7007C3.06793 13.7265 3.05641 13.7554 3.0508 13.7856C3.04519 13.8159 3.0456 13.847 3.052 13.8771C3.0584 13.9072 3.07067 13.9358 3.08811 13.9612C3.10555 13.9865 3.12782 14.0082 3.15364 14.025C3.20579 14.0589 3.26926 14.0706 3.33009 14.0577C4.70343 13.7788 6.09902 13.6235 7.50008 13.5939C8.90112 13.6238 10.2967 13.7789 11.6701 14.0575C11.7004 14.0644 11.7318 14.0653 11.7624 14.06C11.793 14.0547 11.8223 14.0433 11.8485 14.0266C11.8747 14.0099 11.8974 13.9881 11.9151 13.9626C11.9328 13.937 11.9453 13.9082 11.9517 13.8778C11.9582 13.8474 11.9585 13.816 11.9528 13.7854C11.947 13.7549 11.9352 13.7258 11.918 13.6998C11.9009 13.6739 11.8788 13.6516 11.8529 13.6343C11.8271 13.617 11.7981 13.605 11.7676 13.599Z" fill="#2DCE89"/>
<path d="M14.063 0.937531H0.937988C0.813668 0.937531 0.69444 0.986917 0.606532 1.07482C0.518624 1.16273 0.469238 1.28196 0.469238 1.40628V11.25C0.469238 11.3744 0.518624 11.4936 0.606532 11.5815C0.69444 11.6694 0.813668 11.7188 0.937988 11.7188H14.063C14.1873 11.7188 14.3065 11.6694 14.3944 11.5815C14.4824 11.4936 14.5317 11.3744 14.5317 11.25V1.40628C14.5317 1.28196 14.4824 1.16273 14.3944 1.07482C14.3065 0.986917 14.1873 0.937531 14.063 0.937531V0.937531ZM14.063 1.64066V10.0782H0.937988V1.64066H14.063Z" fill="#2DCE89"/>
</svg>
