<svg width="256" height="43" viewBox="0 0 256 43" fill="none" xmlns="http://www.w3.org/2000/svg">
<path d="M80.957 2.03699V26.219C80.957 29.953 81.541 33.746 83.875 36.77C86.676 40.504 91.577 42.459 96.596 42.459C101.614 42.459 106.515 40.504 109.316 36.77C111.651 33.747 112.234 29.954 112.234 26.219V2.03699H104.648V26.871C104.648 29.894 103.656 31.732 102.78 32.74C101.673 34.102 99.63 35.467 96.596 35.467C93.561 35.467 91.519 34.103 90.41 32.74C89.535 31.732 88.543 29.894 88.543 26.871V2.03699H80.957Z" fill="#D6D8A8"/>
<path d="M64.933 2.03699V27.523C64.933 29.954 64.992 32.561 64.058 33.925C63.65 34.576 62.715 35.287 61.082 35.287C59.273 35.287 58.048 34.28 57.289 33.153L52.68 38.784C55.48 41.512 58.806 42.459 61.608 42.459C63.941 42.459 66.275 41.808 67.968 40.681C72.285 37.718 72.519 32.206 72.519 28.709V2.03699H64.933Z" fill="#D6D8A8"/>
<path d="M49.966 2.03699H28.377V41.57H49.966V34.932H35.962V24.145H49.383V17.506H35.962V8.67499H49.966V2.03699Z" fill="#D6D8A8"/>
<path d="M12.254 2.03699V27.523C12.254 29.954 12.312 32.561 11.379 33.925C10.971 34.576 10.036 35.287 8.403 35.287C6.594 35.287 5.369 34.28 4.61 33.153L0 38.784C2.801 41.512 6.127 42.459 8.928 42.459C11.262 42.459 13.596 41.808 15.288 40.681C19.606 37.718 19.84 32.206 19.84 28.709V2.03699H12.254Z" fill="#D6D8A8"/>
<path d="M241.793 5.77199C237.825 1.62299 233.215 1.14899 230.764 1.14899C222.128 1.14899 218.278 6.95699 218.278 12.766C218.278 16.797 220.088 18.989 221.371 20.115C223.354 21.893 225.806 22.842 227.848 23.553C230.066 24.324 232.4 25.094 233.858 26.457C234.91 27.465 235.376 28.591 235.376 30.013C235.376 33.332 232.809 35.466 229.366 35.466C226.624 35.466 223.063 34.044 221.197 30.192L216.237 34.993C218.279 38.015 222.48 42.461 229.657 42.461C237.71 42.461 243.195 37.186 243.195 29.481C243.195 25.452 241.621 22.784 239.869 21.184C237.886 19.347 235.027 18.28 231.992 17.213C229.542 16.324 228.257 15.85 227.324 14.961C226.389 14.131 226.097 13.242 226.097 12.293C226.097 10.278 227.381 7.67099 231.466 7.67099C232.866 7.67099 235.551 7.96699 237.826 11.048L241.793 5.77199Z" fill="#D6D8A8"/>
<path d="M211.211 5.77201C207.242 1.62301 202.633 1.14801 200.183 1.14801C191.546 1.14801 187.695 6.95601 187.695 12.765C187.695 16.796 189.505 18.988 190.789 20.114C192.772 21.892 195.224 22.841 197.266 23.552C199.484 24.323 201.818 25.093 203.277 26.456C204.327 27.464 204.795 28.59 204.795 30.012C204.795 33.331 202.227 35.465 198.783 35.465C196.041 35.465 192.481 34.043 190.614 30.191L185.654 34.992C187.696 38.014 191.898 42.46 199.075 42.46C207.128 42.46 212.613 37.185 212.613 29.48C212.613 25.451 211.037 22.783 209.287 21.183C207.304 19.346 204.444 18.279 201.41 17.212C198.96 16.323 197.676 15.849 196.741 14.96C195.808 14.13 195.515 13.241 195.515 12.292C195.515 10.277 196.8 7.67001 200.884 7.67001C202.284 7.67001 204.969 7.96601 207.243 11.047L211.211 5.77201Z" fill="#D6D8A8"/>
<path d="M142.909 5.06099C140.051 2.51199 137.016 2.03799 132.64 2.03799H121.319V41.571H128.904V26.931H133.805C138.298 26.931 141.508 25.626 143.667 23.433C146.643 20.411 146.876 16.143 146.876 14.602C146.878 11.757 146.062 7.90399 142.909 5.06099ZM136.959 19.047C135.323 20.292 133.457 20.292 131.999 20.292H128.905V8.67399H131.531C133.341 8.67399 135.323 8.79299 136.899 9.91899C138.008 10.749 139.058 12.232 139.058 14.424C139.059 16.144 138.359 17.921 136.959 19.047Z" fill="#D6D8A8"/>
<path d="M167.499 2.03699H161.547L144.801 41.57H153.029L164.406 12.765L175.611 41.57H183.78L167.499 2.03699Z" fill="#D6D8A8"/>
<path d="M255.076 4.041C255.076 6.273 253.258 8.082 251.014 8.082C248.77 8.082 246.951 6.273 246.951 4.041C246.951 1.809 248.77 0 251.014 0C253.258 0 255.076 1.809 255.076 4.041Z" fill="#E31349"/>
</svg>
